<svg width="23" height="23" viewBox="0 0 23 23" fill="none" xmlns="http://www.w3.org/2000/svg">
<path d="M7.90625 1.07812C7.90625 0.480664 7.42559 0 6.82812 0C6.23066 0 5.75 0.480664 5.75 1.07812V2.875C4.16426 2.875 2.875 4.16426 2.875 5.75H1.07812C0.480664 5.75 0 6.23066 0 6.82812C0 7.42559 0.480664 7.90625 1.07812 7.90625H2.875V10.4219H1.07812C0.480664 10.4219 0 10.9025 0 11.5C0 12.0975 0.480664 12.5781 1.07812 12.5781H2.875V15.0938H1.07812C0.480664 15.0938 0 15.5744 0 16.1719C0 16.7693 0.480664 17.25 1.07812 17.25H2.875C2.875 18.8357 4.16426 20.125 5.75 20.125V21.9219C5.75 22.5193 6.23066 23 6.82812 23C7.42559 23 7.90625 22.5193 7.90625 21.9219V20.125H10.4219V21.9219C10.4219 22.5193 10.9025 23 11.5 23C12.0975 23 12.5781 22.5193 12.5781 21.9219V20.125H15.0938V21.9219C15.0938 22.5193 15.5744 23 16.1719 23C16.7693 23 17.25 22.5193 17.25 21.9219V20.125C18.8357 20.125 20.125 18.8357 20.125 17.25H21.9219C22.5193 17.25 23 16.7693 23 16.1719C23 15.5744 22.5193 15.0938 21.9219 15.0938H20.125V12.5781H21.9219C22.5193 12.5781 23 12.0975 23 11.5C23 10.9025 22.5193 10.4219 21.9219 10.4219H20.125V7.90625H21.9219C22.5193 7.90625 23 7.42559 23 6.82812C23 6.23066 22.5193 5.75 21.9219 5.75H20.125C20.125 4.16426 18.8357 2.875 17.25 2.875V1.07812C17.25 0.480664 16.7693 0 16.1719 0C15.5744 0 15.0938 0.480664 15.0938 1.07812V2.875H12.5781V1.07812C12.5781 0.480664 12.0975 0 11.5 0C10.9025 0 10.4219 0.480664 10.4219 1.07812V2.875H7.90625V1.07812ZM7.1875 5.75H15.8125C16.6076 5.75 17.25 6.39238 17.25 7.1875V15.8125C17.25 16.6076 16.6076 17.25 15.8125 17.25H7.1875C6.39238 17.25 5.75 16.6076 5.75 15.8125V7.1875C5.75 6.39238 6.39238 5.75 7.1875 5.75ZM15.8125 7.1875H7.1875V15.8125H15.8125V7.1875Z" fill="black"/>
</svg>
