<svg width="22" height="22" viewBox="0 0 22 22" fill="none" xmlns="http://www.w3.org/2000/svg">
<path d="M0 11C0 8.08262 1.15893 5.28473 3.22183 3.22183C5.28473 1.15893 8.08262 0 11 0C13.9174 0 16.7153 1.15893 18.7782 3.22183C20.8411 5.28473 22 8.08262 22 11C22 13.9174 20.8411 16.7153 18.7782 18.7782C16.7153 20.8411 13.9174 22 11 22C8.08262 22 5.28473 20.8411 3.22183 18.7782C1.15893 16.7153 0 13.9174 0 11ZM13.75 15.125C13.75 13.9691 13.041 12.9809 12.0312 12.577V3.78125C12.0312 3.20977 11.5715 2.75 11 2.75C10.4285 2.75 9.96875 3.20977 9.96875 3.78125V12.577C8.95898 12.9852 8.25 13.9734 8.25 15.125C8.25 16.6418 9.4832 17.875 11 17.875C12.5168 17.875 13.75 16.6418 13.75 15.125ZM6.1875 7.5625C6.55217 7.5625 6.90191 7.41763 7.15977 7.15977C7.41763 6.90191 7.5625 6.55217 7.5625 6.1875C7.5625 5.82283 7.41763 5.47309 7.15977 5.21523C6.90191 4.95737 6.55217 4.8125 6.1875 4.8125C5.82283 4.8125 5.47309 4.95737 5.21523 5.21523C4.95737 5.47309 4.8125 5.82283 4.8125 6.1875C4.8125 6.55217 4.95737 6.90191 5.21523 7.15977C5.47309 7.41763 5.82283 7.5625 6.1875 7.5625ZM5.5 11C5.5 10.6353 5.35513 10.2856 5.09727 10.0277C4.83941 9.76987 4.48967 9.625 4.125 9.625C3.76033 9.625 3.41059 9.76987 3.15273 10.0277C2.89487 10.2856 2.75 10.6353 2.75 11C2.75 11.3647 2.89487 11.7144 3.15273 11.9723C3.41059 12.2301 3.76033 12.375 4.125 12.375C4.48967 12.375 4.83941 12.2301 5.09727 11.9723C5.35513 11.7144 5.5 11.3647 5.5 11ZM17.875 12.375C18.2397 12.375 18.5894 12.2301 18.8473 11.9723C19.1051 11.7144 19.25 11.3647 19.25 11C19.25 10.6353 19.1051 10.2856 18.8473 10.0277C18.5894 9.76987 18.2397 9.625 17.875 9.625C17.5103 9.625 17.1606 9.76987 16.9027 10.0277C16.6449 10.2856 16.5 10.6353 16.5 11C16.5 11.3647 16.6449 11.7144 16.9027 11.9723C17.1606 12.2301 17.5103 12.375 17.875 12.375ZM17.1875 6.1875C17.1875 5.82283 17.0426 5.47309 16.7848 5.21523C16.5269 4.95737 16.1772 4.8125 15.8125 4.8125C15.4478 4.8125 15.0981 4.95737 14.8402 5.21523C14.5824 5.47309 14.4375 5.82283 14.4375 6.1875C14.4375 6.55217 14.5824 6.90191 14.8402 7.15977C15.0981 7.41763 15.4478 7.5625 15.8125 7.5625C16.1772 7.5625 16.5269 7.41763 16.7848 7.15977C17.0426 6.90191 17.1875 6.55217 17.1875 6.1875Z" fill="black"/>
</svg>
