<svg width="155" height="67" viewBox="0 0 155 67" fill="none" xmlns="http://www.w3.org/2000/svg">
<path d="M13.0547 38.8203L21.2578 9.875H25.9453L15.3516 44H12.0469L13.0547 38.8203ZM5.69531 9.875L13.8281 38.8203L14.9062 44H11.6016L1.00781 9.875H5.69531ZM35.0859 9.875V44H30.7734V9.875H35.0859ZM52.8516 9.875V44H48.5859V9.875H52.8516ZM61.8281 9.875V13.5781H39.6328V9.875H61.8281ZM85.2188 40.3203V44H70.4062V40.3203H85.2188ZM71.1797 9.875V44H66.8672V9.875H71.1797ZM83.2266 24.5469V28.2266H70.4062V24.5469H83.2266ZM84.9844 9.875V13.5781H70.4062V9.875H84.9844ZM113.039 9.875V44H108.703L95.0391 17.6797V44H90.7266V9.875H95.0391L108.773 36.2656V9.875H113.039ZM135.422 35.375C135.422 34.5781 135.328 33.875 135.141 33.2656C134.953 32.6406 134.625 32.0781 134.156 31.5781C133.688 31.0781 133.031 30.6016 132.188 30.1484C131.344 29.6953 130.273 29.2344 128.977 28.7656C127.57 28.2656 126.297 27.7109 125.156 27.1016C124.016 26.4766 123.039 25.7656 122.227 24.9688C121.43 24.1719 120.812 23.2578 120.375 22.2266C119.938 21.1953 119.719 20.0156 119.719 18.6875C119.719 17.3594 119.945 16.1328 120.398 15.0078C120.867 13.8828 121.523 12.9062 122.367 12.0781C123.227 11.2344 124.258 10.5781 125.461 10.1094C126.664 9.64062 128.008 9.40625 129.492 9.40625C131.711 9.40625 133.578 9.89844 135.094 10.8828C136.625 11.8516 137.781 13.125 138.562 14.7031C139.344 16.2656 139.734 17.9375 139.734 19.7188H135.422C135.422 18.4375 135.211 17.3047 134.789 16.3203C134.383 15.3203 133.742 14.5391 132.867 13.9766C132.008 13.3984 130.883 13.1094 129.492 13.1094C128.242 13.1094 127.211 13.3516 126.398 13.8359C125.602 14.3203 125.008 14.9766 124.617 15.8047C124.242 16.6328 124.055 17.5781 124.055 18.6406C124.055 19.3594 124.18 20.0156 124.43 20.6094C124.68 21.1875 125.062 21.7266 125.578 22.2266C126.109 22.7266 126.766 23.1875 127.547 23.6094C128.344 24.0312 129.281 24.4375 130.359 24.8281C132.031 25.375 133.461 25.9844 134.648 26.6562C135.836 27.3281 136.805 28.0859 137.555 28.9297C138.305 29.7578 138.852 30.7031 139.195 31.7656C139.555 32.8125 139.734 34 139.734 35.3281C139.734 36.7188 139.5 37.9766 139.031 39.1016C138.578 40.2266 137.914 41.1875 137.039 41.9844C136.164 42.7812 135.109 43.3984 133.875 43.8359C132.641 44.2578 131.25 44.4688 129.703 44.4688C128.359 44.4688 127.039 44.25 125.742 43.8125C124.461 43.375 123.297 42.7188 122.25 41.8438C121.203 40.9688 120.367 39.8906 119.742 38.6094C119.117 37.3125 118.805 35.8125 118.805 34.1094H123.117C123.117 35.2812 123.289 36.2891 123.633 37.1328C123.977 37.9609 124.453 38.6484 125.062 39.1953C125.672 39.7422 126.367 40.1484 127.148 40.4141C127.945 40.6641 128.797 40.7891 129.703 40.7891C130.953 40.7891 132 40.5703 132.844 40.1328C133.703 39.6953 134.344 39.0703 134.766 38.2578C135.203 37.4453 135.422 36.4844 135.422 35.375Z" fill="#2C3C8A"/>
<path d="M4.3125 59.5625L6.57031 51.625H7.66406L7.03125 54.7109L4.60156 63H3.51562L4.3125 59.5625ZM1.97656 51.625L3.77344 59.4062L4.3125 63H3.23438L0.476562 51.625H1.97656ZM10.5859 59.3984L12.3438 51.625H13.8516L11.1016 63H10.0234L10.5859 59.3984ZM7.82812 51.625L10.0234 59.5625L10.8203 63H9.73438L7.39062 54.7109L6.75 51.625H7.82812ZM20.0234 61.5547V57.2031C20.0234 56.8698 19.9557 56.5807 19.8203 56.3359C19.6901 56.0859 19.4922 55.8932 19.2266 55.7578C18.9609 55.6224 18.6328 55.5547 18.2422 55.5547C17.8776 55.5547 17.5573 55.6172 17.2812 55.7422C17.0104 55.8672 16.7969 56.0312 16.6406 56.2344C16.4896 56.4375 16.4141 56.6562 16.4141 56.8906H14.9688C14.9688 56.5885 15.0469 56.2891 15.2031 55.9922C15.3594 55.6953 15.5833 55.4271 15.875 55.1875C16.1719 54.9427 16.526 54.75 16.9375 54.6094C17.3542 54.4635 17.8177 54.3906 18.3281 54.3906C18.9427 54.3906 19.4844 54.4948 19.9531 54.7031C20.4271 54.9115 20.7969 55.2266 21.0625 55.6484C21.3333 56.0651 21.4688 56.5885 21.4688 57.2188V61.1562C21.4688 61.4375 21.4922 61.737 21.5391 62.0547C21.5911 62.3724 21.6667 62.6458 21.7656 62.875V63H20.2578C20.1849 62.8333 20.1276 62.612 20.0859 62.3359C20.0443 62.0547 20.0234 61.7943 20.0234 61.5547ZM20.2734 57.875L20.2891 58.8906H18.8281C18.4167 58.8906 18.0495 58.9245 17.7266 58.9922C17.4036 59.0547 17.1328 59.151 16.9141 59.2812C16.6953 59.4115 16.5286 59.5755 16.4141 59.7734C16.2995 59.9661 16.2422 60.1927 16.2422 60.4531C16.2422 60.7188 16.3021 60.9609 16.4219 61.1797C16.5417 61.3984 16.7214 61.5729 16.9609 61.7031C17.2057 61.8281 17.5052 61.8906 17.8594 61.8906C18.3021 61.8906 18.6927 61.7969 19.0312 61.6094C19.3698 61.4219 19.638 61.1927 19.8359 60.9219C20.0391 60.651 20.1484 60.388 20.1641 60.1328L20.7812 60.8281C20.7448 61.0469 20.6458 61.2891 20.4844 61.5547C20.3229 61.8203 20.1068 62.0755 19.8359 62.3203C19.5703 62.5599 19.2526 62.7604 18.8828 62.9219C18.5182 63.0781 18.1068 63.1562 17.6484 63.1562C17.0755 63.1562 16.5729 63.0443 16.1406 62.8203C15.7135 62.5964 15.3802 62.2969 15.1406 61.9219C14.9062 61.5417 14.7891 61.1172 14.7891 60.6484C14.7891 60.1953 14.8776 59.7969 15.0547 59.4531C15.2318 59.1042 15.487 58.8151 15.8203 58.5859C16.1536 58.3516 16.5547 58.1745 17.0234 58.0547C17.4922 57.9349 18.0156 57.875 18.5938 57.875H20.2734ZM27.2812 54.5469V55.6562H22.7109V54.5469H27.2812ZM24.2578 52.4922H25.7031V60.9062C25.7031 61.1927 25.7474 61.4089 25.8359 61.5547C25.9245 61.7005 26.0391 61.7969 26.1797 61.8438C26.3203 61.8906 26.4714 61.9141 26.6328 61.9141C26.7526 61.9141 26.8776 61.9036 27.0078 61.8828C27.1432 61.8568 27.2448 61.8359 27.3125 61.8203L27.3203 63C27.2057 63.0365 27.0547 63.0703 26.8672 63.1016C26.6849 63.138 26.4635 63.1562 26.2031 63.1562C25.849 63.1562 25.5234 63.0859 25.2266 62.9453C24.9297 62.8047 24.6927 62.5703 24.5156 62.2422C24.3438 61.9089 24.2578 61.4609 24.2578 60.8984V52.4922ZM32.4844 63.1562C31.8958 63.1562 31.362 63.0573 30.8828 62.8594C30.4089 62.6562 30 62.3724 29.6562 62.0078C29.3177 61.6432 29.0573 61.2109 28.875 60.7109C28.6927 60.2109 28.6016 59.6641 28.6016 59.0703V58.7422C28.6016 58.0547 28.7031 57.4427 28.9062 56.9062C29.1094 56.3646 29.3854 55.9062 29.7344 55.5312C30.0833 55.1562 30.4792 54.8724 30.9219 54.6797C31.3646 54.487 31.8229 54.3906 32.2969 54.3906C32.901 54.3906 33.4219 54.4948 33.8594 54.7031C34.3021 54.9115 34.6641 55.2031 34.9453 55.5781C35.2266 55.9479 35.4349 56.3854 35.5703 56.8906C35.7057 57.3906 35.7734 57.9375 35.7734 58.5312V59.1797H29.4609V58H34.3281V57.8906C34.3073 57.5156 34.2292 57.151 34.0938 56.7969C33.9635 56.4427 33.7552 56.151 33.4688 55.9219C33.1823 55.6927 32.7917 55.5781 32.2969 55.5781C31.9688 55.5781 31.6667 55.6484 31.3906 55.7891C31.1146 55.9245 30.8776 56.1276 30.6797 56.3984C30.4818 56.6693 30.3281 57 30.2188 57.3906C30.1094 57.7812 30.0547 58.2318 30.0547 58.7422V59.0703C30.0547 59.4714 30.1094 59.849 30.2188 60.2031C30.3333 60.5521 30.4974 60.8594 30.7109 61.125C30.9297 61.3906 31.1927 61.599 31.5 61.75C31.8125 61.901 32.1667 61.9766 32.5625 61.9766C33.0729 61.9766 33.5052 61.8724 33.8594 61.6641C34.2135 61.4557 34.5234 61.1771 34.7891 60.8281L35.6641 61.5234C35.4818 61.7995 35.25 62.0625 34.9688 62.3125C34.6875 62.5625 34.3411 62.7656 33.9297 62.9219C33.5234 63.0781 33.0417 63.1562 32.4844 63.1562ZM38.9062 55.875V63H37.4609V54.5469H38.8672L38.9062 55.875ZM41.5469 54.5L41.5391 55.8438C41.4193 55.8177 41.3047 55.8021 41.1953 55.7969C41.0911 55.7865 40.9714 55.7812 40.8359 55.7812C40.5026 55.7812 40.2083 55.8333 39.9531 55.9375C39.6979 56.0417 39.4818 56.1875 39.3047 56.375C39.1276 56.5625 38.987 56.7865 38.8828 57.0469C38.7839 57.3021 38.7188 57.5833 38.6875 57.8906L38.2812 58.125C38.2812 57.6146 38.3307 57.1354 38.4297 56.6875C38.5339 56.2396 38.6927 55.8438 38.9062 55.5C39.1198 55.151 39.3906 54.8802 39.7188 54.6875C40.0521 54.4896 40.4479 54.3906 40.9062 54.3906C41.0104 54.3906 41.1302 54.4036 41.2656 54.4297C41.401 54.4505 41.4948 54.474 41.5469 54.5ZM45.0391 63H43.5938V53.6562C43.5938 53.0469 43.7057 52.5339 43.9297 52.1172C44.1589 51.6953 44.487 51.3776 44.9141 51.1641C45.3464 50.9453 45.8698 50.8359 46.4844 50.8359C46.7135 50.8359 47 50.8594 47.3438 50.9062C47.6927 50.9531 48.0625 51.013 48.4531 51.0859C48.849 51.1589 49.2344 51.2344 49.6094 51.3125L48.9375 52.3594C48.4427 52.2656 47.9974 52.1953 47.6016 52.1484C47.2057 52.0964 46.8698 52.0703 46.5938 52.0703C46.2552 52.0703 45.9688 52.1328 45.7344 52.2578C45.5052 52.3776 45.3307 52.5547 45.2109 52.7891C45.0964 53.0234 45.0391 53.3125 45.0391 53.6562V63ZM48.1641 63V51.3125H49.6094V63H48.1641ZM46.8359 54.5469V55.6562H42.2578V54.5469H46.8359ZM51.5938 58.8672V58.6875C51.5938 58.0781 51.6823 57.513 51.8594 56.9922C52.0365 56.4661 52.2917 56.0104 52.625 55.625C52.9583 55.2344 53.362 54.9323 53.8359 54.7188C54.3099 54.5 54.8411 54.3906 55.4297 54.3906C56.0234 54.3906 56.5573 54.5 57.0312 54.7188C57.5104 54.9323 57.9167 55.2344 58.25 55.625C58.5885 56.0104 58.8464 56.4661 59.0234 56.9922C59.2005 57.513 59.2891 58.0781 59.2891 58.6875V58.8672C59.2891 59.4766 59.2005 60.0417 59.0234 60.5625C58.8464 61.0833 58.5885 61.5391 58.25 61.9297C57.9167 62.3151 57.513 62.6172 57.0391 62.8359C56.5703 63.0495 56.0391 63.1562 55.4453 63.1562C54.8516 63.1562 54.3177 63.0495 53.8438 62.8359C53.3698 62.6172 52.9635 62.3151 52.625 61.9297C52.2917 61.5391 52.0365 61.0833 51.8594 60.5625C51.6823 60.0417 51.5938 59.4766 51.5938 58.8672ZM53.0391 58.6875V58.8672C53.0391 59.2891 53.0885 59.6875 53.1875 60.0625C53.2865 60.4323 53.4349 60.7604 53.6328 61.0469C53.8359 61.3333 54.0885 61.5599 54.3906 61.7266C54.6927 61.888 55.0443 61.9688 55.4453 61.9688C55.8411 61.9688 56.1875 61.888 56.4844 61.7266C56.7865 61.5599 57.0365 61.3333 57.2344 61.0469C57.4323 60.7604 57.5807 60.4323 57.6797 60.0625C57.7839 59.6875 57.8359 59.2891 57.8359 58.8672V58.6875C57.8359 58.2708 57.7839 57.8776 57.6797 57.5078C57.5807 57.1328 57.4297 56.8021 57.2266 56.5156C57.0286 56.224 56.7786 55.9948 56.4766 55.8281C56.1797 55.6615 55.8307 55.5781 55.4297 55.5781C55.0339 55.5781 54.6849 55.6615 54.3828 55.8281C54.0859 55.9948 53.8359 56.224 53.6328 56.5156C53.4349 56.8021 53.2865 57.1328 53.1875 57.5078C53.0885 57.8776 53.0391 58.2708 53.0391 58.6875ZM63.2422 61.5L65.4141 54.5469H66.3672L66.1797 55.9297L63.9688 63H63.0391L63.2422 61.5ZM61.7812 54.5469L63.6328 61.5781L63.7656 63H62.7891L60.3359 54.5469H61.7812ZM68.4453 61.5234L70.2109 54.5469H71.6484L69.1953 63H68.2266L68.4453 61.5234ZM66.5781 54.5469L68.7031 61.3828L68.9453 63H68.0234L65.75 55.9141L65.5625 54.5469H66.5781ZM78.5469 56.1719V66.25H77.0938V54.5469H78.4219L78.5469 56.1719ZM84.2422 58.7031V58.8672C84.2422 59.4818 84.1693 60.0521 84.0234 60.5781C83.8776 61.099 83.6641 61.5521 83.3828 61.9375C83.1068 62.3229 82.7656 62.6224 82.3594 62.8359C81.9531 63.0495 81.487 63.1562 80.9609 63.1562C80.4245 63.1562 79.9505 63.0677 79.5391 62.8906C79.1276 62.7135 78.7786 62.4557 78.4922 62.1172C78.2057 61.7786 77.9766 61.3724 77.8047 60.8984C77.638 60.4245 77.5234 59.8906 77.4609 59.2969V58.4219C77.5234 57.7969 77.6406 57.237 77.8125 56.7422C77.9844 56.2474 78.2109 55.8255 78.4922 55.4766C78.7786 55.1224 79.125 54.8542 79.5312 54.6719C79.9375 54.4844 80.4062 54.3906 80.9375 54.3906C81.4688 54.3906 81.9401 54.4948 82.3516 54.7031C82.763 54.9062 83.1094 55.1979 83.3906 55.5781C83.6719 55.9583 83.8828 56.4141 84.0234 56.9453C84.1693 57.4714 84.2422 58.0573 84.2422 58.7031ZM82.7891 58.8672V58.7031C82.7891 58.2812 82.7448 57.8854 82.6562 57.5156C82.5677 57.1406 82.4297 56.8125 82.2422 56.5312C82.0599 56.2448 81.8255 56.0208 81.5391 55.8594C81.2526 55.6927 80.9115 55.6094 80.5156 55.6094C80.151 55.6094 79.8333 55.6719 79.5625 55.7969C79.2969 55.9219 79.0703 56.0911 78.8828 56.3047C78.6953 56.513 78.5417 56.7526 78.4219 57.0234C78.3073 57.2891 78.2214 57.5651 78.1641 57.8516V59.875C78.2682 60.2396 78.4141 60.5833 78.6016 60.9062C78.7891 61.224 79.0391 61.4818 79.3516 61.6797C79.6641 61.8724 80.0573 61.9688 80.5312 61.9688C80.9219 61.9688 81.2578 61.888 81.5391 61.7266C81.8255 61.5599 82.0599 61.3333 82.2422 61.0469C82.4297 60.7604 82.5677 60.4323 82.6562 60.0625C82.7448 59.6875 82.7891 59.2891 82.7891 58.8672ZM87.5312 55.875V63H86.0859V54.5469H87.4922L87.5312 55.875ZM90.1719 54.5L90.1641 55.8438C90.0443 55.8177 89.9297 55.8021 89.8203 55.7969C89.7161 55.7865 89.5964 55.7812 89.4609 55.7812C89.1276 55.7812 88.8333 55.8333 88.5781 55.9375C88.3229 56.0417 88.1068 56.1875 87.9297 56.375C87.7526 56.5625 87.612 56.7865 87.5078 57.0469C87.4089 57.3021 87.3438 57.5833 87.3125 57.8906L86.9062 58.125C86.9062 57.6146 86.9557 57.1354 87.0547 56.6875C87.1589 56.2396 87.3177 55.8438 87.5312 55.5C87.7448 55.151 88.0156 54.8802 88.3438 54.6875C88.6771 54.4896 89.0729 54.3906 89.5312 54.3906C89.6354 54.3906 89.7552 54.4036 89.8906 54.4297C90.026 54.4505 90.1198 54.474 90.1719 54.5ZM90.9688 58.8672V58.6875C90.9688 58.0781 91.0573 57.513 91.2344 56.9922C91.4115 56.4661 91.6667 56.0104 92 55.625C92.3333 55.2344 92.737 54.9323 93.2109 54.7188C93.6849 54.5 94.2161 54.3906 94.8047 54.3906C95.3984 54.3906 95.9323 54.5 96.4062 54.7188C96.8854 54.9323 97.2917 55.2344 97.625 55.625C97.9635 56.0104 98.2214 56.4661 98.3984 56.9922C98.5755 57.513 98.6641 58.0781 98.6641 58.6875V58.8672C98.6641 59.4766 98.5755 60.0417 98.3984 60.5625C98.2214 61.0833 97.9635 61.5391 97.625 61.9297C97.2917 62.3151 96.888 62.6172 96.4141 62.8359C95.9453 63.0495 95.4141 63.1562 94.8203 63.1562C94.2266 63.1562 93.6927 63.0495 93.2188 62.8359C92.7448 62.6172 92.3385 62.3151 92 61.9297C91.6667 61.5391 91.4115 61.0833 91.2344 60.5625C91.0573 60.0417 90.9688 59.4766 90.9688 58.8672ZM92.4141 58.6875V58.8672C92.4141 59.2891 92.4635 59.6875 92.5625 60.0625C92.6615 60.4323 92.8099 60.7604 93.0078 61.0469C93.2109 61.3333 93.4635 61.5599 93.7656 61.7266C94.0677 61.888 94.4193 61.9688 94.8203 61.9688C95.2161 61.9688 95.5625 61.888 95.8594 61.7266C96.1615 61.5599 96.4115 61.3333 96.6094 61.0469C96.8073 60.7604 96.9557 60.4323 97.0547 60.0625C97.1589 59.6875 97.2109 59.2891 97.2109 58.8672V58.6875C97.2109 58.2708 97.1589 57.8776 97.0547 57.5078C96.9557 57.1328 96.8047 56.8021 96.6016 56.5156C96.4036 56.224 96.1536 55.9948 95.8516 55.8281C95.5547 55.6615 95.2057 55.5781 94.8047 55.5781C94.4089 55.5781 94.0599 55.6615 93.7578 55.8281C93.4609 55.9948 93.2109 56.224 93.0078 56.5156C92.8099 56.8021 92.6615 57.1328 92.5625 57.5078C92.4635 57.8776 92.4141 58.2708 92.4141 58.6875ZM100.516 54.5469H101.969V64.0078C101.969 64.5234 101.885 64.9609 101.719 65.3203C101.557 65.6797 101.312 65.9505 100.984 66.1328C100.661 66.3203 100.253 66.4141 99.7578 66.4141C99.6276 66.4141 99.4766 66.401 99.3047 66.375C99.1276 66.349 98.9792 66.3177 98.8594 66.2812L98.8672 65.1172C98.9661 65.138 99.0781 65.1536 99.2031 65.1641C99.3281 65.1797 99.4375 65.1875 99.5312 65.1875C99.7448 65.1875 99.9245 65.1484 100.07 65.0703C100.216 64.9922 100.326 64.8672 100.398 64.6953C100.477 64.5234 100.516 64.2943 100.516 64.0078V54.5469ZM100.367 52.3047C100.367 52.0703 100.44 51.8724 100.586 51.7109C100.732 51.5495 100.943 51.4688 101.219 51.4688C101.5 51.4688 101.714 51.5495 101.859 51.7109C102.005 51.8724 102.078 52.0703 102.078 52.3047C102.078 52.5286 102.005 52.7214 101.859 52.8828C101.714 53.0391 101.5 53.1172 101.219 53.1172C100.943 53.1172 100.732 53.0391 100.586 52.8828C100.44 52.7214 100.367 52.5286 100.367 52.3047ZM107.812 63.1562C107.224 63.1562 106.69 63.0573 106.211 62.8594C105.737 62.6562 105.328 62.3724 104.984 62.0078C104.646 61.6432 104.385 61.2109 104.203 60.7109C104.021 60.2109 103.93 59.6641 103.93 59.0703V58.7422C103.93 58.0547 104.031 57.4427 104.234 56.9062C104.438 56.3646 104.714 55.9062 105.062 55.5312C105.411 55.1562 105.807 54.8724 106.25 54.6797C106.693 54.487 107.151 54.3906 107.625 54.3906C108.229 54.3906 108.75 54.4948 109.188 54.7031C109.63 54.9115 109.992 55.2031 110.273 55.5781C110.555 55.9479 110.763 56.3854 110.898 56.8906C111.034 57.3906 111.102 57.9375 111.102 58.5312V59.1797H104.789V58H109.656V57.8906C109.635 57.5156 109.557 57.151 109.422 56.7969C109.292 56.4427 109.083 56.151 108.797 55.9219C108.51 55.6927 108.12 55.5781 107.625 55.5781C107.297 55.5781 106.995 55.6484 106.719 55.7891C106.443 55.9245 106.206 56.1276 106.008 56.3984C105.81 56.6693 105.656 57 105.547 57.3906C105.438 57.7812 105.383 58.2318 105.383 58.7422V59.0703C105.383 59.4714 105.438 59.849 105.547 60.2031C105.661 60.5521 105.826 60.8594 106.039 61.125C106.258 61.3906 106.521 61.599 106.828 61.75C107.141 61.901 107.495 61.9766 107.891 61.9766C108.401 61.9766 108.833 61.8724 109.188 61.6641C109.542 61.4557 109.852 61.1771 110.117 60.8281L110.992 61.5234C110.81 61.7995 110.578 62.0625 110.297 62.3125C110.016 62.5625 109.669 62.7656 109.258 62.9219C108.852 63.0781 108.37 63.1562 107.812 63.1562ZM116.172 61.9688C116.516 61.9688 116.833 61.8984 117.125 61.7578C117.417 61.6172 117.656 61.4245 117.844 61.1797C118.031 60.9297 118.138 60.6458 118.164 60.3281H119.539C119.513 60.8281 119.344 61.2943 119.031 61.7266C118.724 62.1536 118.32 62.5 117.82 62.7656C117.32 63.026 116.771 63.1562 116.172 63.1562C115.536 63.1562 114.982 63.0443 114.508 62.8203C114.039 62.5964 113.648 62.2891 113.336 61.8984C113.029 61.5078 112.797 61.0599 112.641 60.5547C112.49 60.0443 112.414 59.5052 112.414 58.9375V58.6094C112.414 58.0417 112.49 57.5052 112.641 57C112.797 56.4896 113.029 56.0391 113.336 55.6484C113.648 55.2578 114.039 54.9505 114.508 54.7266C114.982 54.5026 115.536 54.3906 116.172 54.3906C116.833 54.3906 117.411 54.526 117.906 54.7969C118.401 55.0625 118.789 55.4271 119.07 55.8906C119.357 56.349 119.513 56.8698 119.539 57.4531H118.164C118.138 57.1042 118.039 56.7891 117.867 56.5078C117.701 56.2266 117.471 56.0026 117.18 55.8359C116.893 55.6641 116.557 55.5781 116.172 55.5781C115.729 55.5781 115.357 55.6667 115.055 55.8438C114.758 56.0156 114.521 56.25 114.344 56.5469C114.172 56.8385 114.047 57.1641 113.969 57.5234C113.896 57.8776 113.859 58.2396 113.859 58.6094V58.9375C113.859 59.3073 113.896 59.6719 113.969 60.0312C114.042 60.3906 114.164 60.7161 114.336 61.0078C114.513 61.2995 114.75 61.5339 115.047 61.7109C115.349 61.8828 115.724 61.9688 116.172 61.9688ZM124.703 54.5469V55.6562H120.133V54.5469H124.703ZM121.68 52.4922H123.125V60.9062C123.125 61.1927 123.169 61.4089 123.258 61.5547C123.346 61.7005 123.461 61.7969 123.602 61.8438C123.742 61.8906 123.893 61.9141 124.055 61.9141C124.174 61.9141 124.299 61.9036 124.43 61.8828C124.565 61.8568 124.667 61.8359 124.734 61.8203L124.742 63C124.628 63.0365 124.477 63.0703 124.289 63.1016C124.107 63.138 123.885 63.1562 123.625 63.1562C123.271 63.1562 122.945 63.0859 122.648 62.9453C122.352 62.8047 122.115 62.5703 121.938 62.2422C121.766 61.9089 121.68 61.4609 121.68 60.8984V52.4922Z" fill="#2C3C8A"/>
</svg>
